#!OML:ASF F:\VICON\USERDATA\INSTALL\rory3\rory3.ASF
:FULLY-SPECIFIED
:DEGREES
1086
root -0.112167 16.3444 -0.672728 -159.299 -4.37813 177.995
lowerback -15.2555 0.594512 -2.38123
upperback -6.08798 0.310054 -0.50647
thorax 2.08095 -0.180637 0.853537
lowerneck -11.9014 2.33863 -1.33124
upperneck 41.2272 -3.02028 2.72604
head 17.0942 -2.93285 0.38071
rclavicle 1.03306e-014 9.19379e-015
rhumerus -44.1362 -24.7167 -59.3361
rradius 10.486
rwrist 13.9171
rhand 24.2887 7.24898
rfingers 7.12502
rthumb 48.5073 -14.7236
lclavicle 1.03306e-014 9.19379e-015
lhumerus -47.8712 10.6254 70.5031
lradius 28.4886
lwrist -4.30009
lhand 27.7354 18.7248
lfingers 7.12502
lthumb 51.6599 39.0303
rfemur -25.4104 -20.6246 26.5577
rtibia 60.0088
rfoot 33.5163 -19.1493
rtoes 21.2394
lfemur -38.1774 0.846691 -34.1074
ltibia 42.1932
lfoot -34.0893 20.3789
ltoes 2.94946
1087
root -0.112299 16.3435 -0.673462 -159.323 -4.386 178.063
lowerback -15.2017 0.620032 -2.25017
upperback -6.08451 0.327671 -0.541579
thorax 2.05778 -0.172527 0.745713
lowerneck -11.9222 2.30432 -1.33424
upperneck 41.2812 -3.13065 2.7869
head 17.1365 -2.97673 0.386729
rclavicle -6.52806e-015 2.73329e-015
rhumerus -44.1441 -24.6999 -59.4645
rradius 10.5118
rwrist 13.8834
rhand 24.3708 6.89364
rfingers 7.12502
rthumb 48.5829 -15.0426
lclavicle -6.52806e-015 2.73329e-015
lhumerus -47.7812 10.5996 70.4228
lradius 28.3297
lwrist -4.31649
lhand 27.6719 18.5164
lfingers 7.12502
lthumb 51.6022 38.8553
rfemur -25.3652 -20.6221 26.6297
rtibia 59.9967
rfoot 32.6189 -19.4039
rtoes 21.9447
lfemur -38.1613 0.893896 -34.0458
ltibia 42.2068
lfoot -33.9163 20.5176
ltoes 2.65837
1088
root -0.115265 16.3416 -0.676992 -159.312 -4.30395 177.975
lowerback -15.1881 0.661579 -2.25647
upperback -6.1573 0.370767 -0.635768
thorax 1.97301 -0.156883 0.657845
lowerneck -11.7598 2.32426 -1.16563
upperneck 41.2988 -3.13771 2.67376
head 17.1008 -2.98085 0.302716
rclavicle 9.98349e-015 3.60297e-015
rhumerus -44.3278 -24.7056 -59.4289
rradius 10.5306
rwrist 14.0048
rhand 24.4444 6.74451
rfingers 7.12502
rthumb 48.6506 -15.159
lclavicle 9.98349e-015 3.60297e-015
lhumerus -47.8926 10.5814 70.2401
lradius 28.1895
lwrist -4.44532
lhand 27.6119 18.144
lfingers 7.12502
lthumb 51.5477 38.5145
rfemur -25.3562 -20.6253 26.4856
rtibia 60.0208
rfoot 33.1762 -19.3736
rtoes 22.496
lfemur -38.157 0.911022 -34.176
ltibia 42.1981
lfoot -33.826 20.774
ltoes 2.69038
1089
root -0.117756 16.341 -0.68077 -159.335 -4.22637 177.956
lowerback -15.2159 0.706158 -2.22855
upperback -6.1479 0.427832 -0.683561
thorax 1.99696 -0.129936 0.60151
lowerneck -11.7765 2.33038 -1.09653
upperneck 41.3548 -3.14797 2.62487
head 17.1357 -2.98465 0.264238
rclavicle -4.6167e-015 -2.38542e-015
rhumerus -44.1713 -24.3277 -59.8507
rradius 10.5959
rwrist 13.4084
rhand 24.5235 6.24505
rfingers 7.12502
rthumb 48.7234 -15.6231
lclavicle -4.6167e-015 -2.38542e-015
lhumerus -47.8962 10.4255 70.287
lradius 28.2664
lwrist -4.38091
lhand 27.6606 18.2486
lfingers 7.12502
lthumb 51.5919 38.5936
rfemur -25.3454 -20.5989 26.4071
rtibia 60.0585
rfoot 32.6718 -19.3813
rtoes 22.4643
lfemur -38.1299 0.907438 -34.2174
ltibia 42.1992
lfoot -33.9174 20.8025
ltoes 2.39
1090
root -0.118261 16.3418 -0.681729 -159.327 -4.10976 177.974
lowerback -15.2263 0.729576 -2.19347
upperback -6.11959 0.458791 -0.701534
thorax 2.03234 -0.114213 0.568025
lowerneck -11.9065 2.31835 -1.18682
upperneck 41.3826 -3.1826 2.73279
head 17.1901 -2.99495 0.321845
rclavicle -3.08652e-014 1.49834e-014
rhumerus -44.0578 -24.3975 -59.9116
rradius 10.6007
rwrist 13.4602
rhand 24.5282 6.2569
rfingers 7.12502
rthumb 48.7276 -15.6091
lclavicle -3.08652e-014 1.49834e-014
lhumerus -47.8541 10.5517 70.1907
lradius 28.2612
lwrist -4.4251
lhand 27.7153 18.2659
lfingers 7.12502
lthumb 51.6417 38.582
rfemur -25.3993 -20.4984 26.3896
rtibia 60.1017
rfoot 33.1731 -19.8124
rtoes 23.4118
lfemur -38.1314 0.843553 -34.1947
ltibia 42.1968
lfoot -34.1245 20.7967
ltoes 2.37238
